HIERARCHY
ROOT SpineBase
{
  OFFSET 0.000000 0.000000 0.000000
  CHANNELS 6 Xposition Yposition Zposition Zrotation Xrotation Yrotation
  JOINT SpineMid
  {
    OFFSET 0.000000 31.756224 -0.000000
    CHANNELS 3 Zrotation Xrotation Yrotation
    JOINT SpineShoulder
    {
      OFFSET 0.057047 23.515499 -0.829810
      CHANNELS 3 Zrotation Xrotation Yrotation
      JOINT Neck
      {
        OFFSET -0.042358 7.767353 -0.617742
        CHANNELS 3 Zrotation Xrotation Yrotation
        JOINT Head
        {
          OFFSET -0.890445 12.264400 1.015802
          CHANNELS 3 Zrotation Xrotation Yrotation
          End Site
          {
            OFFSET 0 0 0
          }
        }
      }
      JOINT ShoulderLeft
      {
        OFFSET -10.356352 -4.683576 11.810457
        CHANNELS 3 Zrotation Xrotation Yrotation
        JOINT ElbowLeft
        {
          OFFSET 0.463941 -20.696180 -24.185526
          CHANNELS 3 Zrotation Xrotation Yrotation
          JOINT WristLeft
          {
            OFFSET -10.565053 -16.753284 22.237268
            CHANNELS 3 Zrotation Xrotation Yrotation
            JOINT HandLeft
            {
              OFFSET 0.205770 -5.132468 -7.125060
              CHANNELS 3 Zrotation Xrotation Yrotation
              JOINT HandTipLeft
              {
                OFFSET -0.409194 -0.531027 -0.629171
                CHANNELS 3 Zrotation Xrotation Yrotation
                End Site
                {
                  OFFSET 0 0 0
                }
              }
              JOINT ThumbLeft
              {
                OFFSET -0.029415 0.417630 -2.621283
                CHANNELS 3 Zrotation Xrotation Yrotation
                End Site
                {
                  OFFSET 0 0 0
                }
              }
            }
          }
        }
      }
      JOINT ShoulderRight
      {
        OFFSET -1.866887 -5.037468 -12.392115
        CHANNELS 3 Zrotation Xrotation Yrotation
        JOINT ElbowRight
        {
          OFFSET -7.050535 -27.270769 -2.249198
          CHANNELS 3 Zrotation Xrotation Yrotation
          JOINT WristRight
          {
            OFFSET -9.156241 -21.867575 2.385795
            CHANNELS 3 Zrotation Xrotation Yrotation
            JOINT HandRight
            {
              OFFSET -0.918584 -4.461736 2.480812
              CHANNELS 3 Zrotation Xrotation Yrotation
              JOINT HandTipRight
              {
                OFFSET -1.244955 -7.309897 3.178264
                CHANNELS 3 Zrotation Xrotation Yrotation
                End Site
                {
                  OFFSET 0 0 0
                }
              }
              JOINT ThumbRight
              {
                OFFSET 3.451729 -2.251427 -0.947607
                CHANNELS 3 Zrotation Xrotation Yrotation
                End Site
                {
                  OFFSET 0 0 0
                }
              }
            }
          }
        }
      }
    }
  }
  JOINT HipLeft
  {
    OFFSET -2.825229 -0.260693 -0.908840
    CHANNELS 3 Zrotation Xrotation Yrotation
    JOINT KneeLeft
    {
      OFFSET 5.333659 -28.186490 12.802346
      CHANNELS 3 Zrotation Xrotation Yrotation
      JOINT AnkleLeft
      {
        OFFSET 0.952439 -30.975535 5.677533
        CHANNELS 3 Zrotation Xrotation Yrotation
        JOINT FootLeft
        {
          OFFSET -5.326149 -3.407385 -6.503420
          CHANNELS 3 Zrotation Xrotation Yrotation
          End Site
          {
            OFFSET 0 0 0
          }
        }
      }
    }
  }
  JOINT HipRight
  {
    OFFSET 1.444988 1.370283 -5.614335
    CHANNELS 3 Zrotation Xrotation Yrotation
    JOINT KneeRight
    {
      OFFSET -9.641503 -26.377401 5.911376
      CHANNELS 3 Zrotation Xrotation Yrotation
      JOINT AnkleRight
      {
        OFFSET 5.660459 -34.286141 11.510070
        CHANNELS 3 Zrotation Xrotation Yrotation
        JOINT FootRight
        {
          OFFSET -6.041154 -3.767765 -6.399049
          CHANNELS 3 Zrotation Xrotation Yrotation
          End Site
          {
            OFFSET 0 0 0
          }
        }
      }
    }
  }
}
MOTION
Frames: 5
Frame Time: 0.033333
57.380063 65.014463 354.861735 -0.912753 -0.462810 13.601359 1.695222 0.872694 -13.597061 0.783155 -0.335496 0.099300 34.225258 -14.099504 0.529942 0.000000 0.000000 0.000000 -12.830714 14.648420 13.135066 72.165960 57.819768 1.578253 -117.770061 -49.825636 -123.377274 -62.379591 0.119084 60.119125 0.000000 0.000000 0.000000 0.000000 0.000000 0.000000 -8.694954 22.464802 -3.927995 96.880504 36.643363 -36.727661 -26.328068 22.802642 30.559457 -37.847714 18.419138 -95.014298 0.000000 0.000000 0.000000 0.000000 0.000000 0.000000 11.993094 26.189681 -8.246753 -4.964619 -17.552158 -8.109707 24.358271 -42.540957 109.718925 0.000000 0.000000 0.000000 17.785442 11.240281 -17.891427 -13.840129 1.492332 3.485657 -8.212043 -12.321638 1.424524 0.000000 0.000000 0.000000
57.447177 63.931988 355.162348 -0.714958 -1.052222 17.274622 1.806941 0.504729 -17.266812 0.580044 -0.225784 0.085361 41.245083 -18.819297 2.072468 0.000000 0.000000 0.000000 -12.678249 15.353526 12.924721 67.637774 56.473642 8.673838 -116.029569 -47.087649 -122.639688 -62.685762 1.571868 61.452172 0.000000 0.000000 0.000000 0.000000 0.000000 0.000000 -12.268694 24.643579 -3.083455 99.260628 37.430401 -35.199453 -26.343577 22.803533 30.577302 -37.784439 18.481820 -95.044197 0.000000 0.000000 0.000000 0.000000 0.000000 0.000000 14.942765 26.878327 -12.116094 -6.949474 -18.687825 -9.542607 26.203955 -42.650917 119.968255 0.000000 0.000000 0.000000 17.708816 10.038536 -21.234503 -13.332689 2.958631 3.559959 -8.416879 -13.239168 1.799962 0.000000 0.000000 0.000000
57.590659 62.907473 355.320800 -0.314834 -1.693002 19.066748 1.723969 -0.087861 -19.042922 0.281314 0.088712 0.068421 42.705844 -16.593200 1.059797 0.000000 0.000000 0.000000 -12.763761 16.955491 12.928250 61.734350 53.599809 17.851192 -122.198793 -43.283217 -129.587624 -68.764314 4.041244 68.845594 0.000000 0.000000 0.000000 0.000000 0.000000 0.000000 -20.162213 27.622941 -0.725456 104.649808 39.037113 -33.043254 -26.281608 22.820777 30.435974 -37.738251 18.314024 -94.763113 0.000000 0.000000 0.000000 0.000000 0.000000 0.000000 16.859617 27.617312 -14.018353 -8.515692 -19.178270 -10.696156 20.294045 -44.031418 119.274952 0.000000 0.000000 0.000000 16.632461 9.947121 -23.004714 -12.225604 3.924537 3.848477 -7.723561 -13.083857 0.108163 0.000000 0.000000 0.000000
57.786860 61.981228 355.343045 0.030224 -2.233956 18.825717 1.391593 -0.650650 -18.786197 -0.158402 0.512814 0.037137 33.059703 3.203852 -4.394713 0.000000 0.000000 0.000000 -13.029467 19.000024 13.595439 57.593321 50.067684 25.153655 -133.728526 -37.456451 -138.405533 -71.533550 10.163527 77.351694 0.000000 0.000000 0.000000 0.000000 0.000000 0.000000 -23.629463 29.665800 0.700716 106.487300 39.952022 -31.386781 -26.191768 22.834056 30.247641 -37.696514 18.175656 -94.459411 0.000000 0.000000 0.000000 0.000000 0.000000 0.000000 17.216613 28.188121 -13.803589 -9.088913 -18.849643 -11.094731 3.910880 -45.220455 106.088968 0.000000 0.000000 0.000000 15.195360 10.570390 -22.866926 -11.129265 4.526347 4.129833 -6.788727 -12.762020 -1.618042 0.000000 0.000000 0.000000
58.008297 61.365114 355.225012 0.447498 -2.595492 16.120930 1.368080 -1.425751 -16.043857 -0.275811 0.820542 0.044688 -44.055228 47.092137 26.352235 0.000000 0.000000 0.000000 -13.855481 21.419834 14.073784 53.598037 45.892929 32.895534 -145.929317 -28.937918 -146.955198 -72.940804 23.419794 81.230515 0.000000 0.000000 0.000000 0.000000 0.000000 0.000000 -27.902696 31.449555 2.352144 108.242681 40.790768 -30.011749 -26.040531 22.858955 29.939526 -37.674103 17.874423 -93.923561 0.000000 0.000000 0.000000 0.000000 0.000000 0.000000 16.176159 28.721308 -10.785261 -9.746036 -18.113983 -11.431281 9.310578 -45.046142 108.828158 0.000000 0.000000 0.000000 13.225527 12.015926 -20.439573 -9.603696 4.408066 4.645613 -5.863779 -11.806271 -4.328645 0.000000 0.000000 0.000000
